<svg width="173" height="44" viewBox="0 0 173 44" fill="none" xmlns="http://www.w3.org/2000/svg">
<g clip-path="url(#clip0)">
<path d="M-1.77143e-05 39.2275V8.49475C-0.00624196 8.01449 0.0886756 7.53835 0.278496 7.09761C0.468317 6.65688 0.748743 6.26153 1.10134 5.93755C1.45472 5.59267 1.87268 5.32178 2.33098 5.14062C2.78929 4.95946 3.2788 4.87162 3.77113 4.8822H25.0487V10.791H7.32892V19.0483H21.3352V21.3677C21.3414 21.848 21.2465 22.3241 21.0567 22.7648C20.8669 23.2056 20.5865 23.6009 20.2339 23.9249C19.5177 24.5978 18.5669 24.9602 17.5871 24.9339H7.32892V39.2275H-1.77143e-05Z" fill="white"/>
<path d="M121.242 27.4215C120.881 28.6192 120.294 29.7355 119.512 30.7093C118.076 32.5649 115.983 33.5797 113.256 33.771H112.904C110.171 33.5797 108.077 32.5649 106.642 30.7093C104.962 28.703 104.124 25.8308 104.127 22.0926C104.127 18.2268 104.966 15.2908 106.642 13.2845C107.435 12.395 108.399 11.6749 109.474 11.1669C110.55 10.6589 111.716 10.3733 112.904 10.3272H113.256C114.442 10.3754 115.607 10.6619 116.681 11.1698C117.756 11.6777 118.718 12.3967 119.512 13.2845C120.21 14.1651 120.745 15.1648 121.092 16.236H128.842C128.319 13.377 126.993 10.7286 125.019 8.60497C122.228 5.69406 118.291 4.14775 113.209 3.96606H112.858C107.783 4.17482 103.833 5.70565 101.048 8.60497C98.1113 11.6087 96.6448 16.1142 96.6486 22.1216C96.6486 28.0014 98.0787 32.447 100.939 35.4584C103.701 38.4911 107.685 40.0451 112.858 40.1437H113.209C118.388 40.0161 122.36 38.4389 125.128 35.412C127.048 33.3999 128.306 30.7267 128.934 27.4215H121.242Z" fill="white"/>
<path d="M147.323 22.0346L161.606 8.31501L155.609 4.44153L141.574 17.9349V4.78365H137.906C137.415 4.77243 136.927 4.85943 136.47 5.0396C136.012 5.21978 135.595 5.48953 135.242 5.8332C134.89 6.15629 134.61 6.55066 134.42 6.99039C134.23 7.43012 134.135 7.90526 134.141 8.3846V39.2275H141.574V26.0298L154.934 39.1057C155.27 39.4464 155.674 39.711 156.119 39.882C156.565 40.053 157.042 40.1264 157.517 40.0973C158.009 40.0819 158.493 39.9689 158.941 39.7649C159.39 39.5609 159.793 39.2699 160.13 38.9086L162.28 36.7051L147.323 22.0346Z" fill="white"/>
<path d="M28.4566 39.2276V8.38469C28.4512 7.90595 28.5459 7.43141 28.7346 6.99186C28.9234 6.55232 29.2019 6.15759 29.5522 5.83329C29.9068 5.4905 30.3251 5.22136 30.7832 5.04127C31.2413 4.86118 31.7302 4.77367 32.222 4.78374H36.3852V32.8201H51.1065V39.2276H28.4566Z" fill="white"/>
<path d="M71.398 -0.000187402C67.0713 0.036665 62.8527 1.36288 59.2755 3.81076C55.6983 6.25864 52.9233 9.71823 51.3013 13.7521C49.6794 17.7859 49.2833 22.2128 50.1632 26.473C51.0432 30.7332 53.1595 34.6354 56.2448 37.686C59.33 40.7367 63.2455 42.7988 67.4962 43.6117C71.7469 44.4246 76.1418 43.9517 80.1252 42.2528C84.1086 40.5539 87.5016 37.7054 89.8751 34.0673C92.2487 30.4293 93.4962 26.1652 93.4598 21.8143C93.4357 18.9251 92.8459 16.0691 91.7241 13.4092C90.6023 10.7493 88.9705 8.3377 86.9219 6.31202C84.8732 4.28635 82.4479 2.6863 79.7843 1.60324C77.1207 0.520189 74.271 -0.024658 71.398 -0.000187402Z" fill="#FFDF00"/>
<path d="M172.112 32.8202H165.74V39.2277H172.112V32.8202Z" fill="white"/>
<path d="M52.9633 28.0188C53.2632 28.1348 57.3226 24.3772 59.0756 23.9597C60.8285 23.5422 64.1384 24.1511 67.7884 27.5607L73.1799 23.1073C73.1799 23.1073 76.5416 20.208 82.0081 15.7025C86.8114 11.7362 83.5246 6.19275 83.5246 6.19275C83.5246 6.19275 71.9459 16.0098 71.5019 16.3403L71.2078 16.5665C70.3452 17.061 69.3868 17.3631 68.3978 17.4521C67.4089 17.5412 66.4124 17.4151 65.4761 17.0826C64.5708 16.8042 63.7462 16.4737 62.939 16.2766C60.2173 15.6155 57.5244 16.5607 56.7633 19.2687C56.2213 21.217 56.942 21.4779 56.1175 22.9972C55.2525 24.6266 52.7615 27.9434 52.9633 28.0188Z" fill="#2B2523"/>
<path d="M76.778 39.2276C76.778 39.2276 74.5811 35.5629 69.2819 29.3293L74.385 25.0499L83.4381 17.4653C83.4381 17.4653 86.8575 22.0115 81.0854 27.1606L79.0557 28.993C77.3258 30.4891 78.4214 32.5998 78.4445 34.3799C78.4791 37.8127 77.5046 38.6129 76.778 39.2276Z" fill="#2B2523"/>
</g>
<defs>
<clipPath id="clip0">
<rect width="172.118" height="44" fill="white"/>
</clipPath>
</defs>
</svg>
